<?xml version="1.0" encoding="UTF-8"?>
<svg version="1.1" xmlns="http://www.w3.org/2000/svg" width="150" height="150">
<path d="M0 0 C8.72020787 6.81030643 13.93848876 15.51029129 16.1875 26.375 C15.8575 27.365 15.5275 28.355 15.1875 29.375 C10.73058098 30.86063967 6.35624835 30.60000001 1.6875 30.625 C0.72457031 30.645625 -0.23835938 30.66625 -1.23046875 30.6875 C-2.61685547 30.69523437 -2.61685547 30.69523437 -4.03125 30.703125 C-4.87623047 30.7124707 -5.72121094 30.72181641 -6.59179688 30.73144531 C-9.30350716 30.29618838 -10.1364326 29.50324152 -11.8125 27.375 C-12.43885556 26.08247815 -13.02115941 24.76787002 -13.5625 23.4375 C-15.28638298 19.93162562 -17.05240981 17.75109485 -20.6953125 16 C-26.60282012 14.25608631 -32.64243241 14.49933944 -38.25 17.0625 C-44.18622196 20.56861887 -46.86120879 25.4819329 -49.046875 31.8828125 C-51.53412003 43.22769543 -50.84230678 54.87098583 -45.8125 65.375 C-45.4825 66.365 -45.1525 67.355 -44.8125 68.375 C-43.06382517 69.45931094 -43.06382517 69.45931094 -40.8125 70.375 C-40.008125 70.91125 -39.20375 71.4475 -38.375 72 C-32.99415117 74.07681885 -27.51317449 74.10274568 -21.8125 73.375 C-17.32066605 71.18308669 -15.22422828 68.7677908 -12.8125 64.375 C-12.43311383 62.38322259 -12.09257677 60.38315042 -11.8125 58.375 C-12.87210937 58.32601562 -13.93171875 58.27703125 -15.0234375 58.2265625 C-16.41148497 58.15153291 -17.79950451 58.07598515 -19.1875 58 C-19.88617188 57.9690625 -20.58484375 57.938125 -21.3046875 57.90625 C-26.5859375 57.6015625 -26.5859375 57.6015625 -28.8125 55.375 C-28.95757695 52.63014407 -28.99902423 49.99019457 -28.9375 47.25 C-28.92847656 46.49589844 -28.91945312 45.74179688 -28.91015625 44.96484375 C-28.8865687 43.10142746 -28.85069719 41.23817407 -28.8125 39.375 C-25.40181119 37.66965559 -21.50576219 38.23352863 -17.75390625 38.2421875 C-16.85381332 38.24123077 -15.9537204 38.24027405 -15.02635193 38.23928833 C-13.12067597 38.23860714 -11.21499769 38.24045719 -9.30932617 38.24462891 C-6.39040919 38.24997179 -3.47164651 38.24468507 -0.55273438 38.23828125 C1.29687534 38.23894216 3.14648496 38.2402236 4.99609375 38.2421875 C5.87116074 38.24016327 6.74622772 38.23813904 7.64781189 38.23605347 C8.46198074 38.23920563 9.2761496 38.24235779 10.11499023 38.24560547 C11.18848976 38.24679886 11.18848976 38.24679886 12.28367615 38.24801636 C14.1875 38.375 14.1875 38.375 17.1875 39.375 C17.26336651 47.02874424 17.31602217 54.68239207 17.35229492 62.33642578 C17.36741108 64.94193139 17.38790432 67.54741144 17.41381836 70.15283203 C17.45007688 73.89101456 17.46719798 77.62886165 17.48046875 81.3671875 C17.49595261 82.53804901 17.51143646 83.70891052 17.52738953 84.91525269 C17.52761612 85.99622223 17.52784271 87.07719177 17.52807617 88.19091797 C17.53806892 89.62321243 17.53806892 89.62321243 17.54826355 91.08444214 C17.42921158 91.84032623 17.31015961 92.59621033 17.1875 93.375 C13.35207543 95.93194972 11.52847467 95.41545639 7 95 C5.72769531 94.88914062 4.45539063 94.77828125 3.14453125 94.6640625 C2.16871094 94.56867188 1.19289063 94.47328125 0.1875 94.375 C-1.2341319 91.0578589 -2.20259109 87.93280196 -2.8125 84.375 C-3.2971875 84.83390625 -3.781875 85.2928125 -4.28125 85.765625 C-13.21716898 93.94542776 -20.7743715 96.66277857 -32.875 96.53125 C-37.63629576 96.27798959 -42.17977066 95.48005471 -46.8125 94.375 C-47.51117188 94.21515625 -48.20984375 94.0553125 -48.9296875 93.890625 C-58.48107565 91.05205985 -66.7899142 81.69240208 -71.8125 73.375 C-80.20533396 55.14229175 -78.92322703 35.08459779 -72.125 16.6875 C-71.691875 15.594375 -71.25875 14.50125 -70.8125 13.375 C-70.1525 13.375 -69.4925 13.375 -68.8125 13.375 C-68.626875 12.694375 -68.44125 12.01375 -68.25 11.3125 C-63.79870154 2.21636836 -54.79814261 -1.92732514 -45.8125 -5.625 C-30.63817203 -10.70018422 -13.22395498 -8.82788346 0 0 Z " fill="#FDFCFC" transform="translate(80.8125,43.625)"/>
<path d="M0 0 C0.36749268 3.03637695 0.36749268 3.03637695 0.35644531 6.98828125 C0.35951187 8.06654678 0.35951187 8.06654678 0.36264038 9.16659546 C0.36565477 11.54882025 0.34715215 13.93035719 0.328125 16.3125 C0.32506836 17.96394682 0.32319152 19.61539622 0.32244873 21.2668457 C0.31784152 24.73040611 0.3034 28.19373456 0.28125 31.65722656 C0.25296728 36.10290349 0.24203896 40.54839754 0.2375679 44.99415588 C0.23341602 48.40500732 0.22360048 51.81582157 0.21169281 55.22665405 C0.20598463 56.86615704 0.20122774 58.50566361 0.19742584 60.14517212 C0.1905705 62.43408525 0.17694154 64.72285215 0.16113281 67.01171875 C0.15430481 68.31584717 0.14747681 69.61997559 0.14044189 70.96362305 C0 74 0 74 -1 76 C-5.17587078 77.39195693 -9.12598185 77.22400286 -13.5 77.25 C-14.36753906 77.270625 -15.23507813 77.29125 -16.12890625 77.3125 C-16.96292969 77.31765625 -17.79695313 77.3228125 -18.65625 77.328125 C-19.41744141 77.3374707 -20.17863281 77.34681641 -20.96289062 77.35644531 C-23.6884097 76.8795448 -24.37139765 76.24459241 -26 74 C-26.36749268 70.8366394 -26.36749268 70.8366394 -26.35644531 66.88232422 C-26.35848969 66.16172821 -26.36053406 65.4411322 -26.36264038 64.69869995 C-26.36564841 62.31710429 -26.34717412 59.93620084 -26.328125 57.5546875 C-26.32506782 55.90227429 -26.32319139 54.2498585 -26.32244873 52.59744263 C-26.31784585 49.13566212 -26.30341848 45.67411427 -26.28125 42.21240234 C-26.25292341 37.76553464 -26.24203414 33.31884992 -26.2375679 28.87190056 C-26.23342046 25.46109166 -26.22360939 22.05032009 -26.21169281 18.63953018 C-26.20597942 16.9992007 -26.20122427 15.3588676 -26.19742584 13.71853256 C-26.19058495 11.43191905 -26.17696425 9.14545339 -26.16113281 6.85888672 C-26.15430481 5.55555389 -26.14747681 4.25222107 -26.14044189 2.90939331 C-26 0 -26 0 -25 -1 C-5.09829868 -3.39886578 -5.09829868 -3.39886578 0 0 Z " fill="#FDFCFC" transform="translate(137,62)"/>
<path d="M0 0 C1.8125 1.15234375 1.8125 1.15234375 3.5 2.5 C4.098125 2.95503906 4.69625 3.41007813 5.3125 3.87890625 C10.01784072 8.57335498 10.06267099 13.81958117 10.125 20.125 C10.13595703 20.9487915 10.14691406 21.77258301 10.15820312 22.62133789 C10.00903698 28.98854639 8.29533273 32.69852368 3.72265625 37.28125 C0.60571114 38.99036577 -2.59502665 39.46278582 -6.0625 40 C-7.50188198 40.24663934 -8.94068929 40.49665555 -10.37890625 40.75 C-11.08160645 40.87375 -11.78430664 40.9975 -12.50830078 41.125 C-19.7513621 42.48873403 -26.66288016 44.79095251 -33.5 47.5 C-35.0234375 46.40625 -35.0234375 46.40625 -36.5 44.5 C-36.5390625 41.46875 -36.5390625 41.46875 -36.125 38 C-35.50838137 33.17411477 -35.50838137 33.17411477 -36.5 28.5 C-37.10906526 19.17661643 -37.30997723 12.15663883 -31.25 4.75 C-23.02853872 -1.97665013 -9.89679989 -4.36227879 0 0 Z M-20.5 14.5 C-20.83 15.82 -21.16 17.14 -21.5 18.5 C-19.52 18.5 -17.54 18.5 -15.5 18.5 C-15.5 19.16 -15.5 19.82 -15.5 20.5 C-13.55925139 20.22382467 -13.55925139 20.22382467 -11.5 19.5 C-10.84 18.51 -10.18 17.52 -9.5 16.5 C-10.12648437 16.43941406 -10.75296875 16.37882812 -11.3984375 16.31640625 C-12.21570313 16.23261719 -13.03296875 16.14882813 -13.875 16.0625 C-15.09316406 15.94068359 -15.09316406 15.94068359 -16.3359375 15.81640625 C-18.5 15.5 -18.5 15.5 -20.5 14.5 Z M-6.5 14.5 C-5.5 16.5 -5.5 16.5 -5.5 16.5 Z M-15.5 22.5 C-15.5 23.49 -15.5 24.48 -15.5 25.5 C-14.51 25.17 -13.52 24.84 -12.5 24.5 C-12.5 23.84 -12.5 23.18 -12.5 22.5 C-13.49 22.5 -14.48 22.5 -15.5 22.5 Z " fill="#FBFBFB" transform="translate(140.5,7.5)"/>
<path d="M0 0 C8.72020787 6.81030643 13.93848876 15.51029129 16.1875 26.375 C15.8575 27.365 15.5275 28.355 15.1875 29.375 C10.73058098 30.86063967 6.35624835 30.60000001 1.6875 30.625 C0.72457031 30.645625 -0.23835938 30.66625 -1.23046875 30.6875 C-2.61685547 30.69523437 -2.61685547 30.69523437 -4.03125 30.703125 C-4.87623047 30.7124707 -5.72121094 30.72181641 -6.59179688 30.73144531 C-9.30350716 30.29618838 -10.1364326 29.50324152 -11.8125 27.375 C-12.43885556 26.08247815 -13.02115941 24.76787002 -13.5625 23.4375 C-15.28638298 19.93162562 -17.05240981 17.75109485 -20.6953125 16 C-26.60282012 14.25608631 -32.64243241 14.49933944 -38.25 17.0625 C-44.18622196 20.56861887 -46.86120879 25.4819329 -49.046875 31.8828125 C-51.53412003 43.22769543 -50.84230678 54.87098583 -45.8125 65.375 C-45.4825 66.365 -45.1525 67.355 -44.8125 68.375 C-43.8225 68.87 -43.8225 68.87 -42.8125 69.375 C-42.8125 70.035 -42.8125 70.695 -42.8125 71.375 C-42.26980469 71.64054687 -41.72710937 71.90609375 -41.16796875 72.1796875 C-40.45253906 72.53289062 -39.73710938 72.88609375 -39 73.25 C-38.29230469 73.59804687 -37.58460937 73.94609375 -36.85546875 74.3046875 C-34.8125 75.375 -34.8125 75.375 -31.8125 77.375 C-38.41927771 76.84645778 -42.26732116 74.92017884 -46.9375 70.25 C-54.53183386 58.60535474 -55.64138057 44.45131653 -53.19921875 30.99609375 C-50.88495245 23.82900472 -46.30547746 16.80384619 -39.55078125 13.15234375 C-33.02163334 11.29884812 -22.80697465 10.77715905 -16.625 13.875 C-12.57603358 17.47408126 -10.21205297 21.57589407 -7.8125 26.375 C-0.8825 26.705 6.0475 27.035 13.1875 27.375 C8.46266796 15.01774698 3.42947831 5.16614205 -9.16015625 -0.6875 C-22.76446553 -5.49609238 -37.44831223 -5.21546469 -50.8125 0.375 C-61.06770856 5.81251443 -67.49744932 13.71042192 -71.03515625 24.703125 C-71.29167969 25.58484375 -71.54820313 26.4665625 -71.8125 27.375 C-72.15087891 28.45007813 -72.15087891 28.45007813 -72.49609375 29.546875 C-76.54799669 44.41316717 -73.80452439 61.30745149 -66.52734375 74.6875 C-60.89760615 83.51041451 -52.59799664 89.25403414 -42.4609375 92.015625 C-31.36307585 93.52152953 -20.21992423 93.61474776 -10.796875 86.94921875 C-7.29614454 84.10303663 -4.61677852 80.90631369 -1.8125 77.375 C-1.1525 77.375 -0.4925 77.375 0.1875 77.375 C2.21653697 81.43307395 1.2342948 86.97628877 1.1875 91.375 C5.4775 91.375 9.7675 91.375 14.1875 91.375 C14.1875 74.875 14.1875 58.375 14.1875 41.375 C0.9875 41.375 -12.2125 41.375 -25.8125 41.375 C-25.8125 45.335 -25.8125 49.295 -25.8125 53.375 C-23.98912109 53.35759766 -23.98912109 53.35759766 -22.12890625 53.33984375 C-20.54427236 53.33046722 -18.95963682 53.32136687 -17.375 53.3125 C-16.17133789 53.29993164 -16.17133789 53.29993164 -14.94335938 53.28710938 C-12.89954779 53.2784857 -10.85566098 53.3227185 -8.8125 53.375 C-7.8125 54.375 -7.8125 54.375 -7.5625 57.4375 C-7.979386 64.00345456 -10.01625971 69.71198861 -14.8125 74.375 C-20.78422414 77.57413793 -20.78422414 77.57413793 -24.03125 76.9453125 C-24.91296875 76.66300781 -24.91296875 76.66300781 -25.8125 76.375 C-24.595625 76.065625 -23.37875 75.75625 -22.125 75.4375 C-17.49162949 73.71230885 -15.9274364 71.10672393 -13.72265625 66.82421875 C-12.68309632 64.02677636 -12.21703849 61.3260018 -11.8125 58.375 C-12.87210937 58.32601562 -13.93171875 58.27703125 -15.0234375 58.2265625 C-16.41148497 58.15153291 -17.79950451 58.07598515 -19.1875 58 C-19.88617188 57.9690625 -20.58484375 57.938125 -21.3046875 57.90625 C-26.5859375 57.6015625 -26.5859375 57.6015625 -28.8125 55.375 C-28.95757695 52.63014407 -28.99902423 49.99019457 -28.9375 47.25 C-28.92847656 46.49589844 -28.91945312 45.74179688 -28.91015625 44.96484375 C-28.8865687 43.10142746 -28.85069719 41.23817407 -28.8125 39.375 C-25.40181119 37.66965559 -21.50576219 38.23352863 -17.75390625 38.2421875 C-16.85381332 38.24123077 -15.9537204 38.24027405 -15.02635193 38.23928833 C-13.12067597 38.23860714 -11.21499769 38.24045719 -9.30932617 38.24462891 C-6.39040919 38.24997179 -3.47164651 38.24468507 -0.55273438 38.23828125 C1.29687534 38.23894216 3.14648496 38.2402236 4.99609375 38.2421875 C5.87116074 38.24016327 6.74622772 38.23813904 7.64781189 38.23605347 C8.46198074 38.23920563 9.2761496 38.24235779 10.11499023 38.24560547 C11.18848976 38.24679886 11.18848976 38.24679886 12.28367615 38.24801636 C14.1875 38.375 14.1875 38.375 17.1875 39.375 C17.26336651 47.02874424 17.31602217 54.68239207 17.35229492 62.33642578 C17.36741108 64.94193139 17.38790432 67.54741144 17.41381836 70.15283203 C17.45007688 73.89101456 17.46719798 77.62886165 17.48046875 81.3671875 C17.49595261 82.53804901 17.51143646 83.70891052 17.52738953 84.91525269 C17.52761612 85.99622223 17.52784271 87.07719177 17.52807617 88.19091797 C17.53806892 89.62321243 17.53806892 89.62321243 17.54826355 91.08444214 C17.42921158 91.84032623 17.31015961 92.59621033 17.1875 93.375 C13.35207543 95.93194972 11.52847467 95.41545639 7 95 C5.72769531 94.88914062 4.45539063 94.77828125 3.14453125 94.6640625 C2.16871094 94.56867188 1.19289063 94.47328125 0.1875 94.375 C-1.2341319 91.0578589 -2.20259109 87.93280196 -2.8125 84.375 C-3.2971875 84.83390625 -3.781875 85.2928125 -4.28125 85.765625 C-13.21716898 93.94542776 -20.7743715 96.66277857 -32.875 96.53125 C-37.63629576 96.27798959 -42.17977066 95.48005471 -46.8125 94.375 C-47.51117188 94.21515625 -48.20984375 94.0553125 -48.9296875 93.890625 C-58.48107565 91.05205985 -66.7899142 81.69240208 -71.8125 73.375 C-80.20533396 55.14229175 -78.92322703 35.08459779 -72.125 16.6875 C-71.691875 15.594375 -71.25875 14.50125 -70.8125 13.375 C-70.1525 13.375 -69.4925 13.375 -68.8125 13.375 C-68.626875 12.694375 -68.44125 12.01375 -68.25 11.3125 C-63.79870154 2.21636836 -54.79814261 -1.92732514 -45.8125 -5.625 C-30.63817203 -10.70018422 -13.22395498 -8.82788346 0 0 Z " fill="#E5E4F7" transform="translate(80.8125,43.625)"/>
<path d="M0 0 C0.36749268 3.03637695 0.36749268 3.03637695 0.35644531 6.98828125 C0.35951187 8.06654678 0.35951187 8.06654678 0.36264038 9.16659546 C0.36565477 11.54882025 0.34715215 13.93035719 0.328125 16.3125 C0.32506836 17.96394682 0.32319152 19.61539622 0.32244873 21.2668457 C0.31784152 24.73040611 0.3034 28.19373456 0.28125 31.65722656 C0.25296728 36.10290349 0.24203896 40.54839754 0.2375679 44.99415588 C0.23341602 48.40500732 0.22360048 51.81582157 0.21169281 55.22665405 C0.20598463 56.86615704 0.20122774 58.50566361 0.19742584 60.14517212 C0.1905705 62.43408525 0.17694154 64.72285215 0.16113281 67.01171875 C0.15430481 68.31584717 0.14747681 69.61997559 0.14044189 70.96362305 C0 74 0 74 -1 76 C-5.17587078 77.39195693 -9.12598185 77.22400286 -13.5 77.25 C-14.36753906 77.270625 -15.23507813 77.29125 -16.12890625 77.3125 C-16.96292969 77.31765625 -17.79695313 77.3228125 -18.65625 77.328125 C-19.41744141 77.3374707 -20.17863281 77.34681641 -20.96289062 77.35644531 C-23.6884097 76.8795448 -24.37139765 76.24459241 -26 74 C-26.36749268 70.8366394 -26.36749268 70.8366394 -26.35644531 66.88232422 C-26.35848969 66.16172821 -26.36053406 65.4411322 -26.36264038 64.69869995 C-26.36564841 62.31710429 -26.34717412 59.93620084 -26.328125 57.5546875 C-26.32506782 55.90227429 -26.32319139 54.2498585 -26.32244873 52.59744263 C-26.31784585 49.13566212 -26.30341848 45.67411427 -26.28125 42.21240234 C-26.25292341 37.76553464 -26.24203414 33.31884992 -26.2375679 28.87190056 C-26.23342046 25.46109166 -26.22360939 22.05032009 -26.21169281 18.63953018 C-26.20597942 16.9992007 -26.20122427 15.3588676 -26.19742584 13.71853256 C-26.19058495 11.43191905 -26.17696425 9.14545339 -26.16113281 6.85888672 C-26.15430481 5.55555389 -26.14747681 4.25222107 -26.14044189 2.90939331 C-26 0 -26 0 -25 -1 C-5.09829868 -3.39886578 -5.09829868 -3.39886578 0 0 Z M-23 1 C-23 25.09 -23 49.18 -23 74 C-16.4 74 -9.8 74 -3 74 C-3 49.91 -3 25.82 -3 1 C-9.6 1 -16.2 1 -23 1 Z " fill="#E9E7F8" transform="translate(137,62)"/>
<path d="M0 0 C0.33 0 0.66 0 1 0 C1.21672698 5.80190664 1.4136517 11.60401439 1.59204102 17.40722656 C1.65557108 19.38234535 1.72456319 21.35729616 1.79907227 23.33203125 C1.90507671 26.16640525 1.99158763 29.000798 2.07421875 31.8359375 C2.11157639 32.72243988 2.14893402 33.60894226 2.18742371 34.52230835 C2.2487793 37.00927734 2.2487793 37.00927734 2 41 C-1.83542457 43.55694972 -3.65902533 43.04045639 -8.1875 42.625 C-9.45980469 42.51414063 -10.73210937 42.40328125 -12.04296875 42.2890625 C-13.01878906 42.19367188 -13.99460937 42.09828125 -15 42 C-16.4216319 38.6828589 -17.39009109 35.55780196 -18 32 C-18.4846875 32.45890625 -18.969375 32.9178125 -19.46875 33.390625 C-28.40466898 41.57042776 -35.9618715 44.28777857 -48.0625 44.15625 C-52.82346484 43.90300719 -57.36795671 43.10689619 -62 42 C-62.73347656 41.82855469 -63.46695313 41.65710938 -64.22265625 41.48046875 C-70.23721262 39.68421396 -73.22670354 35.81996844 -77 31 C-78.13976126 29.66147242 -79.2851802 28.32773148 -80.4375 27 C-81.283125 26.01 -82.12875 25.02 -83 24 C-82.67 23.34 -82.34 22.68 -82 22 C-81.46632813 22.65226562 -80.93265625 23.30453125 -80.3828125 23.9765625 C-72.7633218 32.91430418 -64.89569367 38.95135708 -52.92651367 40.21972656 C-42.06098716 40.82826764 -32.86745141 40.1703334 -24.125 33.0625 C-21.45250602 30.5912291 -19.26245507 27.8490175 -17 25 C-16.34 25 -15.68 25 -15 25 C-12.97096303 29.05807395 -13.9532052 34.60128877 -14 39 C-9.71 39 -5.42 39 -1 39 C-1.00523682 37.99622314 -1.01047363 36.99244629 -1.01586914 35.95825195 C-1.0340174 32.22160743 -1.04546787 28.48496679 -1.05493164 24.74829102 C-1.05994942 23.13337549 -1.06676511 21.51846448 -1.07543945 19.90356445 C-1.08761714 17.57762535 -1.09325395 15.2517465 -1.09765625 12.92578125 C-1.10281754 12.20787918 -1.10797882 11.48997711 -1.11329651 10.75032043 C-1.11370876 7.03709768 -0.88944216 3.61008878 0 0 Z " fill="#DADAF6" transform="translate(96,96)"/>
<path d="M0 0 C1.9453125 -0.29296875 1.9453125 -0.29296875 4.125 -0.1875 C5.40375 -0.125625 6.6825 -0.06375 8 0 C8.66 1.32 9.32 2.64 10 4 C10.495 3.484375 10.99 2.96875 11.5 2.4375 C15.27769578 0.26532493 17.7760147 1.16905207 22 2 C23 3 23 3 23.5 5.5625 C22.67062877 11.26442724 18.65341249 14.93943238 14.19921875 18.3984375 C12.83319216 19.31781578 11.42103792 20.16817292 10 21 C5.09587254 18.85647409 1.95032041 15.41003391 -1 11 C-1.98948848 8.06798941 -2.05372274 6.16964163 -2 3 C-1.34 2.01 -0.68 1.02 0 0 Z M3 6 C2.67 7.32 2.34 8.64 2 10 C3.98 10 5.96 10 8 10 C8 10.66 8 11.32 8 12 C9.94074861 11.72382467 9.94074861 11.72382467 12 11 C12.66 10.01 13.32 9.02 14 8 C13.37351563 7.93941406 12.74703125 7.87882812 12.1015625 7.81640625 C11.28429687 7.73261719 10.46703125 7.64882813 9.625 7.5625 C8.40683594 7.44068359 8.40683594 7.44068359 7.1640625 7.31640625 C5 7 5 7 3 6 Z M17 6 C18 8 18 8 18 8 Z M8 14 C8 14.99 8 15.98 8 17 C8.99 16.67 9.98 16.34 11 16 C11 15.34 11 14.68 11 14 C10.01 14 9.02 14 8 14 Z " fill="#D3D2F2" transform="translate(117,16)"/>
<path d="M0 0 C3.91621166 0.22378352 4.9384855 0.93419379 7.6875 3.875 C13.38182242 11.5700303 13.87024072 18.52272092 13 28 C11.51879139 32.07524234 8.63720065 34.74578854 5 37 C2.45305314 37.61331162 0.01569323 38.10072363 -2.5625 38.5 C-10.07849522 39.78413559 -17.59092015 41.15207683 -24.65625 44.11328125 C-27.28961981 45.10957283 -28.40469921 44.96122252 -31 44 C-31 42.35 -31 40.7 -31 39 C-30.67 39.99 -30.34 40.98 -30 42 C-29.12859375 41.66226563 -28.2571875 41.32453125 -27.359375 40.9765625 C-19.57834271 38.06288591 -12.25843492 36.14473355 -4 35 C2.37007191 34.14724353 2.37007191 34.14724353 7.5 30.5625 C10.77082227 24.97484529 10.56785989 19.31044305 10 13 C8.29735491 6.95804228 5.34707545 4.03811105 0 1 C0 0.67 0 0.34 0 0 Z " fill="#DADBF5" transform="translate(137,9)"/>
<path d="M0 0 C1.27230469 0.00902344 2.54460937 0.01804687 3.85546875 0.02734375 C5.31919922 0.04474609 5.31919922 0.04474609 6.8125 0.0625 C6.8125 1.0525 6.8125 2.0425 6.8125 3.0625 C5.8946875 3.09988281 4.976875 3.13726562 4.03125 3.17578125 C-7.94997207 3.74057939 -7.94997207 3.74057939 -18.125 9.5625 C-21.27700332 13.38311008 -21.30855614 16.24599199 -21.28515625 21.04296875 C-21.28193359 22.20634766 -21.27871094 23.36972656 -21.27539062 24.56835938 C-21.26701172 25.78330078 -21.25863281 26.99824219 -21.25 28.25 C-21.24548828 29.47654297 -21.24097656 30.70308594 -21.23632812 31.96679688 C-21.22453065 34.99874668 -21.20806921 38.03059906 -21.1875 41.0625 C-21.5175 41.0625 -21.8475 41.0625 -22.1875 41.0625 C-22.26097656 39.99708984 -22.26097656 39.99708984 -22.3359375 38.91015625 C-22.41070312 37.99105469 -22.48546875 37.07195313 -22.5625 36.125 C-22.63210937 35.20847656 -22.70171875 34.29195312 -22.7734375 33.34765625 C-22.91007812 32.59355469 -23.04671875 31.83945312 -23.1875 31.0625 C-23.8475 30.7325 -24.5075 30.4025 -25.1875 30.0625 C-25.80818966 13.48778736 -25.80818966 13.48778736 -19.9375 6.3125 C-13.96926471 1.4293984 -7.61815311 -0.06989131 0 0 Z " fill="#E3E2F6" transform="translate(129.1875,5.9375)"/>
<path d="M0 0 C8.73257874 0.97743149 16.30741851 6.44490616 22 13 C22.680625 13.680625 23.36125 14.36125 24.0625 15.0625 C27.06033536 19.60760522 28.7705648 24.70513185 30 30 C29.67 30.99 29.34 31.98 29 33 C24.79288816 34.40237061 20.95583797 34.00608248 16.5625 33.8125 C15.70333984 33.79380859 14.84417969 33.77511719 13.95898438 33.75585938 C7.60131338 33.47472109 7.60131338 33.47472109 4.40234375 30.94921875 C3.93957031 30.30597656 3.47679688 29.66273437 3 29 C3.33 28.01 3.66 27.02 4 26 C4.66 27.32 5.32 28.64 6 30 C12.93 30.33 19.86 30.66 27 31 C21.7401943 17.2435851 16.27010074 8.27063229 2.30859375 1.9609375 C1.54675781 1.64382812 0.78492187 1.32671875 0 1 C0 0.67 0 0.34 0 0 Z " fill="#D7D5EF" transform="translate(67,40)"/>
<path d="M0 0 C4.875 0.875 4.875 0.875 6 2 C6.45103314 5.24743861 6.19145134 6.69367786 4.4375 9.5 C1.51481655 12.49762405 -1.52835587 14.66331645 -5 17 C-8.79379058 15.50958227 -10.68343758 13.30937488 -13 10 C-13 9.34 -13 8.68 -13 8 C-9.25 6.875 -9.25 6.875 -7 8 C-7 8.66 -7 9.32 -7 10 C-5.35 9.01 -3.7 8.02 -2 7 C-2.33 6.01 -2.66 5.02 -3 4 C-1.5625 1.8125 -1.5625 1.8125 0 0 Z M2 4 C3 6 3 6 3 6 Z M-7 12 C-7 12.99 -7 13.98 -7 15 C-6.01 14.67 -5.02 14.34 -4 14 C-4 13.34 -4 12.68 -4 12 C-4.99 12 -5.98 12 -7 12 Z " fill="#F5F7F8" transform="translate(132,18)"/>
<path d="M0 0 C7.59 0.33 15.18 0.66 23 1 C23.06769241 10.74423551 23.12276768 20.48831565 23.15543652 30.23273277 C23.17111343 34.75713184 23.19238839 39.28136214 23.22631836 43.80566406 C23.25883996 48.16932465 23.27683774 52.53282261 23.28463173 56.896595 C23.29018824 58.56403795 23.30103834 60.23147169 23.31719017 61.89884567 C23.33886932 64.22882289 23.34197101 66.55812227 23.34057617 68.88818359 C23.351362 69.58229843 23.36214783 70.27641327 23.3732605 70.99156189 C23.36076355 72.91220093 23.36076355 72.91220093 23 76 C21.515 76.99 21.515 76.99 20 78 C19.505 77.505 19.505 77.505 19 77 C17.65984779 76.84417697 16.31241097 76.74955858 14.96484375 76.68359375 C14.15595703 76.64169922 13.34707031 76.59980469 12.51367188 76.55664062 C11.66353516 76.51732422 10.81339844 76.47800781 9.9375 76.4375 C8.65649414 76.37272461 8.65649414 76.37272461 7.34960938 76.30664062 C5.23327963 76.20023298 3.11666187 76.09958269 1 76 C1.495 75.01 1.495 75.01 2 74 C8.6 74.33 15.2 74.66 22 75 C22 50.91 22 26.82 22 2 C15.07 2 8.14 2 1 2 C0.67 1.34 0.34 0.68 0 0 Z " fill="#CEC9F2" transform="translate(112,61)"/>
<path d="M0 0 C6.27 0 12.54 0 19 0 C19 7.50154799 18.12195755 11.58971108 14.25 17.8125 C11.38891058 20.59411471 8.7855088 21.78322932 5 23 C2.78125 22.5703125 2.78125 22.5703125 1 22 C2.8253125 21.5359375 2.8253125 21.5359375 4.6875 21.0625 C9.36541245 19.32072409 10.96854778 16.67742872 13.1015625 12.296875 C14.17708281 9.54728395 14.7735461 6.94390064 15 4 C14.41992188 3.95101562 13.83984375 3.90203125 13.2421875 3.8515625 C8.56076908 3.40350595 4.42514541 2.701979 0 1 C0 0.67 0 0.34 0 0 Z " fill="#D4CFF5" transform="translate(54,98)"/>
<path d="M0 0 C3.44223684 2.65080843 3.70873201 5.46966453 4.4375 9.625 C5.45272777 14.80266162 6.70471022 19.30874965 9.03515625 24.03515625 C10 26 10 26 10.87109375 28.484375 C12.17148886 31.38214127 13.70569878 33.00707035 16 35.1875 C16.70125 35.86167969 17.4025 36.53585938 18.125 37.23046875 C18.74375 37.81441406 19.3625 38.39835937 20 39 C20.66 39.66 21.32 40.32 22 41 C16.16475713 40.15316203 12.66716834 35.25102877 9 31 C2.48640253 21.65370781 -0.19066813 11.24941991 0 0 Z " fill="#EAE9FA" transform="translate(4,92)"/>
<path d="M0 0 C0.639375 0.66 1.27875 1.32 1.9375 2 C2.95367909 3.00472919 3.97529981 4.00396275 5 5 C5.66644531 5.65097656 6.33289063 6.30195312 7.01953125 6.97265625 C14.93179614 14.38607432 22.37514737 17.31421962 33 19 C33 19.33 33 19.66 33 20 C25.9773556 20.26009794 18.13158394 20.52054317 12.4375 15.9375 C11.633125 14.968125 10.82875 13.99875 10 13 C8.42192563 11.47371046 6.83812739 9.95332646 5.25 8.4375 C0.53515949 3.93342222 0.53515949 3.93342222 0 0 Z " fill="#C5C3EA" transform="translate(13,118)"/>
<path d="M0 0 C0.556875 0.28875 1.11375 0.5775 1.6875 0.875 C6.49013147 3.21141531 10.09361499 4.27526348 15.5 4.25 C16.6034375 4.25515625 17.706875 4.2603125 18.84375 4.265625 C21.96392334 4.00303615 24.18304814 3.32438782 27 2 C26 5 26 5 22.9375 6.6875 C21.968125 7.120625 20.99875 7.55375 20 8 C20 8.33 20 8.66 20 9 C18.39667209 9.08121924 16.79215974 9.13929134 15.1875 9.1875 C14.29417969 9.22230469 13.40085937 9.25710937 12.48046875 9.29296875 C9.49441144 8.94028482 8.92037623 8.21910142 7 6 C5.79638912 5.22937976 4.56625928 4.49851923 3.3125 3.8125 C2.219375 3.214375 1.12625 2.61625 0 2 C0 1.34 0 0.68 0 0 Z " fill="#EBEBF6" transform="translate(37,113)"/>
<path d="M0 0 C0.33 0 0.66 0 1 0 C1.07406517 4.5206339 1.12856045 9.040916 1.16479492 13.56201172 C1.17989711 15.10048574 1.20038046 16.63891661 1.22631836 18.17724609 C1.26264074 20.38650141 1.27971119 22.59518848 1.29296875 24.8046875 C1.30845261 25.49432587 1.32393646 26.18396423 1.33988953 26.89450073 C1.34057617 28.83544922 1.34057617 28.83544922 1 32 C0.01 32.66 -0.98 33.32 -2 34 C-2.495 33.505 -2.495 33.505 -3 33 C-4.34015221 32.84417697 -5.68758903 32.74955858 -7.03515625 32.68359375 C-8.24848633 32.62075195 -8.24848633 32.62075195 -9.48632812 32.55664062 C-10.7615332 32.49766602 -10.7615332 32.49766602 -12.0625 32.4375 C-13.34350586 32.37272461 -13.34350586 32.37272461 -14.65039062 32.30664062 C-16.76672037 32.20023298 -18.88333813 32.09958269 -21 32 C-20.67 31.34 -20.34 30.68 -20 30 C-13.4 30.33 -6.8 30.66 0 31 C0 20.77 0 10.54 0 0 Z " fill="#D1CEF1" transform="translate(134,105)"/>
<path d="M0 0 C2.31 0 4.62 0 7 0 C7.66 1.32 8.32 2.64 9 4 C9.495 3.484375 9.99 2.96875 10.5 2.4375 C14.27769578 0.26532493 16.7760147 1.16905207 21 2 C22 3 22 3 22.25 5.9375 C22.1675 6.948125 22.085 7.95875 22 9 C21.01 9.66 20.02 10.32 19 11 C19 8.69 19 6.38 19 4 C16.525 3.505 16.525 3.505 14 3 C12.515 5.475 12.515 5.475 11 8 C10.01 7.67 9.02 7.34 8 7 C7.3125 4.9375 7.3125 4.9375 7 3 C4.69 2.34 2.38 1.68 0 1 C0 0.67 0 0.34 0 0 Z " fill="#CCCEED" transform="translate(118,16)"/>
<path d="M0 0 C0.66 1.98 1.32 3.96 2 6 C0.33388095 6.042721 -1.33382885 6.04063832 -3 6 C-3.33 5.67 -3.66 5.34 -4 5 C-4.99 5.99 -5.98 6.98 -7 8 C-8 7 -8 7 -8.0625 3.4375 C-8.041875 2.303125 -8.02125 1.16875 -8 0 C-5.13822943 -1.43088528 -3.06624227 -0.59991697 0 0 Z " fill="#FBFCFE" transform="translate(125,18)"/>
<path d="M0 0 C1.07917226 3.23751678 1.11425601 5.57751771 1.09765625 8.98046875 C1.09282227 10.72553711 1.09282227 10.72553711 1.08789062 12.50585938 C1.07951172 13.72080078 1.07113281 14.93574219 1.0625 16.1875 C1.05798828 17.41404297 1.05347656 18.64058594 1.04882812 19.90429688 C1.03703065 22.93624668 1.02056921 25.96809906 1 29 C0.67 29 0.34 29 0 29 C-0.07347656 27.93458984 -0.07347656 27.93458984 -0.1484375 26.84765625 C-0.26058594 25.46900391 -0.26058594 25.46900391 -0.375 24.0625 C-0.44460937 23.14597656 -0.51421875 22.22945312 -0.5859375 21.28515625 C-0.79089844 20.15400391 -0.79089844 20.15400391 -1 19 C-1.66 18.67 -2.32 18.34 -3 18 C-2.88521587 15.93690624 -2.75773802 13.87451646 -2.625 11.8125 C-2.55539063 10.66394531 -2.48578125 9.51539063 -2.4140625 8.33203125 C-2.02490426 5.20040883 -1.3190149 2.84714191 0 0 Z " fill="#D1CFEF" transform="translate(107,18)"/>
<path d="M0 0 C8.70415256 0.97424977 16.35978169 6.41974531 22 13 C22.33 13.66 22.66 14.32 23 15 C22.01 15.33 21.02 15.66 20 16 C19.5875 15.48050781 19.175 14.96101563 18.75 14.42578125 C13.45914805 8.03660512 7.90592111 3.71766038 0 1 C0 0.67 0 0.34 0 0 Z " fill="#C6C3E9" transform="translate(67,40)"/>
<path d="M0 0 C0.33 0.66 0.66 1.32 1 2 C-0.6396875 2.86625 -0.6396875 2.86625 -2.3125 3.75 C-7.64747393 6.82621481 -9.26277725 10.12016917 -11 16 C-11.99 16 -12.98 16 -14 16 C-13.48231657 11.69865971 -12.13594941 9.50765827 -9.25 6.3125 C-8.57453125 5.54550781 -7.8990625 4.77851562 -7.203125 3.98828125 C-4.88584871 1.89698049 -2.94649616 0.96327759 0 0 Z " fill="#D5D3F6" transform="translate(44,56)"/>
<path d="M0 0 C0.33 0 0.66 0 1 0 C1.33 4.95 1.66 9.9 2 15 C0 11 0 11 -1 6 C-3.64 8.31 -6.28 10.62 -9 13 C-9.66 12.67 -10.32 12.34 -11 12 C-10.45730469 11.55269531 -9.91460937 11.10539063 -9.35546875 10.64453125 C-5.47703716 7.36708185 -2.35999319 4.58116324 0 0 Z " fill="#F8F9FB" transform="translate(79,122)"/>
<path d="M0 0 C0.78375 0.04125 1.5675 0.0825 2.375 0.125 C2.66309717 5.69487857 2.57719683 9.32170476 -0.625 14.125 C-2.8125 15.5 -2.8125 15.5 -4.625 16.125 C-3.985625 15.09375 -3.34625 14.0625 -2.6875 13 C-0.80788629 9.73890342 0.00626531 6.90453056 0.375 3.125 C-1.275 2.795 -2.925 2.465 -4.625 2.125 C-2.625 0.125 -2.625 0.125 0 0 Z " fill="#FAFCFF" transform="translate(68.625,98.875)"/>
<path d="M0 0 C6.27 0 12.54 0 19 0 C19 1.65 19 3.3 19 5 C18.67 3.68 18.34 2.36 18 1 C16.783125 1.350625 15.56625 1.70125 14.3125 2.0625 C10.82479667 2.93442583 8.49622475 3.03941817 5 2 C3.6078125 1.7215625 3.6078125 1.7215625 2.1875 1.4375 C1.465625 1.293125 0.74375 1.14875 0 1 C0 0.67 0 0.34 0 0 Z " fill="#C9C7EA" transform="translate(54,98)"/>
<path d="M0 0 C7.26 0 14.52 0 22 0 C21.34 1.32 20.68 2.64 20 4 C19.34 3.67 18.68 3.34 18 3 C16.6265365 2.84995027 15.2471474 2.75161994 13.8671875 2.68359375 C13.06152344 2.64169922 12.25585938 2.59980469 11.42578125 2.55664062 C10.58402344 2.51732422 9.74226563 2.47800781 8.875 2.4375 C8.02550781 2.39431641 7.17601563 2.35113281 6.30078125 2.30664062 C4.20071777 2.20045764 2.10038052 2.09971503 0 2 C0 1.34 0 0.68 0 0 Z " fill="#B7B8E3" transform="translate(113,135)"/>
<path d="M0 0 C0.33 0.66 0.66 1.32 1 2 C1.66 2.33 2.32 2.66 3 3 C1.21189234 3.69670416 -0.58062052 4.38211189 -2.375 5.0625 C-3.37273438 5.44535156 -4.37046875 5.82820313 -5.3984375 6.22265625 C-8 7 -8 7 -10 6 C-8.71086513 5.32845067 -7.41859796 4.66291141 -6.125 4 C-5.40570313 3.62875 -4.68640625 3.2575 -3.9453125 2.875 C-2 2 -2 2 0 2 C0 1.34 0 0.68 0 0 Z " fill="#C4BDEA" transform="translate(38,37)"/>
<path d="M0 0 C0.99 0 1.98 0 3 0 C2.34 1.98 1.68 3.96 1 6 C0.01 6 -0.98 6 -2 6 C-1.125 1.125 -1.125 1.125 0 0 Z " fill="#E6E5F6" transform="translate(32,66)"/>
<path d="M0 0 C3.33333333 1.66666667 6.66666667 3.33333333 10 5 C7 6 7 6 5.17578125 5.22265625 C3.45052083 4.1484375 1.72526042 3.07421875 0 2 C0 1.34 0 0.68 0 0 Z " fill="#FBFBFE" transform="translate(37,113)"/>
<path d="" fill="#FFFFFF" transform="translate(0,0)"/>
</svg>
